<svg preserveAspectRatio="none" width="100%" height="100%" overflow="visible" style="display: block;" viewBox="0 0 86.8933 20.7704" fill="none" xmlns="http://www.w3.org/2000/svg">
<g id="Group">
<path id="Vector" d="M4.09643 1.04992C3.58159 3.35554 2.73095 5.75076 1.83557 7.27291C1.41026 7.02668 0.514856 6.66831 9.65595e-06 6.48923C0.962549 5.01185 1.72354 2.79553 2.14885 0.646602L4.09643 1.04992ZM12.625 7.2281V9.15287H0.179125V7.2281H12.625ZM10.8118 11.1006V12.9806H3.02188V18.9576H1.14165V11.0782H10.8118V11.1006ZM11.7519 3.26598V5.16834H2.01454L2.39518 3.26598H11.7519ZM7.45413 0.288645V20.7704H5.46186V0.288645H7.45413ZM11.9533 11.1006V17.0099C11.9533 17.8829 11.8191 18.3978 11.2147 18.7336C10.6327 19.0469 9.78202 19.0696 8.59563 19.0472C8.52848 18.51 8.28225 17.7488 8.03601 17.2564C8.84186 17.2788 9.49104 17.2788 9.73727 17.2564C9.96111 17.2564 10.0283 17.1889 10.0283 16.9651V11.0782H11.9311L11.9533 11.1006ZM15.9379 2.12434V14.5479H13.968V2.12434H15.9379ZM19.9671 0.467897V18.1067C19.9671 19.3603 19.6984 19.9422 18.9597 20.3228C18.221 20.6585 16.9676 20.7261 15.2887 20.7261C15.1992 20.1441 14.9081 19.1811 14.6171 18.5543C15.8483 18.5991 17.0571 18.5991 17.46 18.5991C17.7958 18.5991 17.9301 18.4873 17.9301 18.1291V0.490304H19.9671V0.467897Z" fill="var(--fill-0, #3A72B9)"/>
<path id="Vector_2" d="M28.7671 17.6351C30.1101 18.4409 32.0577 18.5303 34.4304 18.5303C36.9375 18.5303 40.7877 18.3737 43.1604 18.0603C42.9142 18.5975 42.6008 19.6052 42.5784 20.1648C40.6086 20.2991 36.736 20.4108 34.3856 20.4108C31.7442 20.4108 29.9311 20.2094 28.4985 19.4036C27.6926 18.9111 27.0211 18.3291 26.5958 18.3291C25.8795 18.3291 24.7826 19.4709 23.7529 20.702L22.4546 18.8664C23.8872 17.5457 25.4766 16.5383 26.6406 16.5383C27.2897 16.5383 27.7374 17.0531 28.7895 17.6575L28.7671 17.6351ZM27.2673 17.2099H25.2527V10.6514H22.4994V8.70365H27.2673V17.2099ZM24.3797 1.00347C25.6109 2.03316 27.1106 3.46591 27.8045 4.4956L26.1481 5.74872C25.499 4.74141 24.044 3.21954 22.8352 2.1227L24.4021 1.00347H24.3797ZM32.9082 0.869028C32.2367 3.10749 31.1175 5.34571 29.9311 6.77833C29.5282 6.48733 28.6552 5.995 28.1627 5.79354C29.3939 4.47284 30.3788 2.43608 30.9608 0.443851L32.9082 0.869028ZM42.6232 7.06961V8.86049H28.297V7.06961H42.6232ZM40.9667 10.4721V16.8295H29.9983V10.4721H40.9667ZM41.683 2.83916V4.62949H31.0951V2.83916H41.683ZM31.9681 15.1059H38.885V12.1958H31.9681V15.1059ZM36.6017 0.174973V8.25606H34.5199V0.174973H36.6017Z" fill="var(--fill-0, #3A72B9)"/>
<path id="Vector_3" d="M56.5016 0.89526C53.9721 4.61111 49.9429 7.72235 45.7346 9.62505C45.4212 9.08781 44.8168 8.34958 44.2796 7.85712C48.3312 6.24543 52.4052 3.38017 54.5989 9.33707e-05L56.4792 0.917666L56.5016 0.89526ZM64.3586 18.2433V20.1463H45.3988V18.2433H64.3586ZM50.122 10.2071V19.2057H48.0626V10.2071H50.122ZM56.0763 6.40179V19.385H53.8602V6.40179H56.0763ZM65.4107 7.81231C64.8958 8.26 64.3138 8.99825 64.0452 9.60264C60.5084 7.96856 57.2403 5.97666 54.0169 2.10412L55.7405 1.27562C58.6505 4.63332 61.9635 6.44684 65.4107 7.81231ZM62.2992 11.2815V13.1844H54.9123V11.2815H62.2992Z" fill="var(--fill-0, #3A72B9)"/>
<path id="Vector_4" d="M86.8933 17.5925V19.6965H67.1277V17.5925H86.8933ZM69.478 5.10167C70.5972 7.65351 71.9404 11.0113 72.5224 13.0259L70.4182 13.8096C69.9034 11.7726 68.6498 8.28031 67.553 5.68369L69.5004 5.10167H69.478ZM75.3204 0.446037V18.421H73.1715V0.446037H75.3204ZM80.8494 0.446037V18.5324H78.7005V0.446037H80.8494ZM86.5575 6.0646C85.5054 8.75075 84.0504 11.8623 82.8416 13.9664L81.0956 13.0483C82.282 10.9889 83.8042 7.72071 84.6324 5.14648L86.5575 6.04219V6.0646Z" fill="var(--fill-0, #3A72B9)"/>
</g>
</svg>
