<svg preserveAspectRatio="none" width="100%" height="100%" overflow="visible" style="display: block;" viewBox="0 0 95.6313 47.5411" fill="none" xmlns="http://www.w3.org/2000/svg">
<g id="Group">
<path id="Vector" d="M10.9468 15.308C8.70834 17.5912 4.83575 19.6509 1.52282 20.6358C1.20944 20.121 0.605084 19.3151 0.157392 18.8898C3.4927 18.1063 7.36521 16.3828 9.35744 14.5025L10.9692 15.308H10.9468ZM7.63392 0.578743C6.26846 2.99628 4.36573 5.59329 1.72434 7.69745C1.38857 7.24975 0.694689 6.62274 0.224611 6.33174C2.68692 4.51859 4.47764 2.12344 5.48494 0.175973L7.63392 0.578743ZM20.7289 13.9428V15.6441H0.784227V13.9428H20.7289ZM19.4753 2.48165V4.1381H5.41786V13.0247H3.33597V3.6457L4.52242 2.48165H19.4753ZM20.1244 10.7415V12.3755H4.0523V10.7415H20.1244ZM18.5352 5.36936V6.80173H4.92533V5.36936H18.5352ZM18.5799 8.033V9.46592H4.92533V8.033H18.5799ZM11.7302 12.5995V20.7921H9.62605V12.5995H11.7302ZM11.8645 0.13116C12.3794 0.981776 12.939 2.14573 13.1629 2.88443L11.1706 3.51126C10.9915 2.77257 10.4544 1.56375 9.98428 0.668369L11.8645 0.13116ZM12.4465 3.60089V11.4803H10.432V3.60089H12.4465ZM21.199 18.7777C20.7513 19.203 20.1692 19.9641 19.8782 20.479C16.5429 19.5164 12.6928 17.5241 10.4767 15.2856L12.0884 14.4576C14.0359 16.3156 17.8637 17.9942 21.199 18.7553V18.7777Z" fill="var(--fill-0, #3A72B9)"/>
<path id="Vector_2" d="M42.2824 1.14546V20.844H40.0215V3.07078H25.7401V20.844H23.5913V1.14546H42.2824ZM41.387 18.0684V19.9713H24.8V18.0684H41.387ZM35.6789 8.33139C33.7538 11.219 30.6424 13.7705 27.8891 15.2927C27.6205 14.9122 27.0384 14.2409 26.5684 13.8827C29.2321 12.4501 32.2318 9.94301 33.9554 7.14494L35.6789 8.33139ZM38.9695 6.54051V8.39806H26.9937V6.54051H38.9695ZM35.858 3.89927V14.8899C35.858 15.8749 35.6789 16.4122 35.0074 16.7256C34.3582 17.039 33.418 17.0836 32.0078 17.0836C31.9183 16.524 31.6049 15.7179 31.3363 15.2031C32.2764 15.2478 33.1942 15.2478 33.4629 15.2031C33.7539 15.2031 33.8211 15.1361 33.8211 14.8675V3.89927H35.858Z" fill="var(--fill-0, #3A72B9)"/>
<path id="Vector_3" d="M50.5015 1.20667H52.27L46.1142 22.9421H44.3233L50.4791 1.20667H50.5015Z" fill="var(--fill-0, #3A72B9)"/>
<path id="Vector_4" d="M73.8671 11.0765V13.1805H53.8105V11.0765H73.8671ZM72.5911 1.65261V3.73423H54.9744V1.65261H72.5911ZM58.3545 4.6518C59.1828 6.19634 60.0558 8.1889 60.3468 9.46483L58.3097 10.1359C58.0411 8.86001 57.2578 6.80075 56.4519 5.23383L58.3545 4.6518ZM64.8908 2.50297V20.8134H62.6972V2.50297H64.8908ZM71.4719 5.16661C70.6437 6.93499 69.6588 8.90482 68.8529 10.1807L67.0174 9.62113C67.8008 8.27805 68.7187 6.12912 69.2112 4.58459L71.4496 5.16661H71.4719Z" fill="var(--fill-0, #3A72B9)"/>
<path id="Vector_5" d="M77.0521 7.52148C77.6117 7.40955 78.1488 6.9393 78.8875 6.22299C79.671 5.4843 82.2005 2.73092 83.857 0L85.9611 0.918119C83.8793 3.82812 81.3946 6.55876 79.0442 8.46145V8.52867C79.0442 8.52867 77.746 9.15536 77.746 9.55828C77.6565 9.13297 77.2983 8.08109 77.0521 7.52148ZM77.7236 7.92425L79.2009 7.16352L93.1689 6.6039C93.1689 7.1859 93.2809 8.03617 93.3704 8.48386C80.2306 9.17778 78.7757 9.22253 77.746 9.58069V7.94665L77.7236 7.92425ZM93.3256 11.2595V20.773H91.0871V13.2745H80.8798V20.8178H78.7309V11.2595H93.3256ZM92.1617 17.5946V19.6314H79.7829V17.5946H92.1617ZM89.7217 2.52975C91.8259 4.43244 94.4673 7.18555 95.6313 9.04348L93.8405 10.342C92.7661 8.46165 90.2142 5.64119 88.0877 3.62657L89.7217 2.52975Z" fill="var(--fill-0, #3A72B9)"/>
<path id="Vector_6" d="M7.16311 31.0221L7.52134 30.9324L8.68525 31.6937C7.16309 35.8349 4.02928 39.6626 1.02974 41.7444C0.850665 41.1848 0.335769 40.1772 0 39.7967C2.77569 38.0507 5.57379 34.7377 6.73779 31.4248V31.0221H7.16311ZM7.49893 31.0221V32.925H0.80595V31.0221H7.49893ZM4.05161 26.9927C4.70077 28 5.46193 29.2987 5.82008 30.1493L4.11883 30.9996C3.76068 30.1266 2.99956 28.7389 2.39517 27.7092L4.05161 26.9927ZM5.75286 35.5886V47.4526H3.69352V38.073L5.75286 35.5886ZM9.04348 38.8119L7.81221 40.5131C7.14067 39.6401 5.50663 37.8717 4.76794 37.1554L5.95439 36.1258C6.55877 36.5735 8.5734 38.3642 9.04348 38.8343V38.8119ZM20.6163 27.8884V29.6788H8.68525V27.8884H20.6163ZM20.5044 37.5134V47.4078H18.4897V39.2146H10.7446V47.4526H8.79714V37.491H20.5044V37.5134ZM19.4747 41.1624V42.7516H9.91637V41.1624H19.4747ZM19.4971 30.91V36.2603H9.91637V30.91H19.4971ZM19.4971 44.766V46.4896H9.93878V44.766H19.4971ZM11.7967 34.6262H17.5496V32.5441H11.7967V34.6262ZM15.4679 38.5211V45.9748H13.5875V38.5211H15.4679Z" fill="var(--fill-0, #3A72B9)"/>
<path id="Vector_7" d="M28.7906 35.0563C27.6713 38.414 25.5895 42.3984 23.5077 44.525C23.2838 43.9206 22.7466 43.0478 22.4109 42.5106C24.3583 40.675 26.4178 37.2499 27.3579 34.4295L28.8128 35.0563H28.7906ZM33.3346 28.5869C30.6708 29.6613 26.7088 30.4 23.3287 30.8477C23.2392 30.3553 22.9481 29.639 22.7019 29.1913C25.9476 28.7212 29.7083 27.9154 31.8124 26.9752L33.3346 28.5869ZM33.5137 33.5119V35.4591H22.9034V33.5119H33.5137ZM29.4397 28.8781V47.4351H27.3803V28.8781H29.4397ZM33.4913 40.294L32.2826 42.0848C31.3424 40.988 29.0815 38.7273 28.0294 37.8096L29.1487 36.6903C29.9993 37.2723 32.8197 39.6901 33.4913 40.2721V40.294ZM36.849 29.5274V41.8837H34.8119V29.5274H36.849ZM42.266 27.2889V44.8157C42.266 46.1364 41.9526 46.7408 41.1692 47.099C40.341 47.4347 38.9979 47.5023 36.9609 47.5023C36.8489 46.9203 36.5132 45.9573 36.1999 45.3529C37.7444 45.4201 39.1322 45.3977 39.6022 45.3977C40.0275 45.3977 40.1843 45.2634 40.1843 44.8381V27.3113H42.266V27.2889Z" fill="var(--fill-0, #3A72B9)"/>
<path id="Vector_8" d="M65.0089 29.1465V30.9373H45.3551V29.1465H65.0089ZM63.0166 33.9371V35.6607H48.5337V47.4351H46.5191V33.9371H62.9942H63.0166ZM54.3314 36.5783C53.1226 37.899 51.2646 39.4434 49.8096 40.3836C49.6753 40.0254 49.2277 39.0853 48.9367 38.6823C50.235 37.9436 51.8243 36.8692 52.8316 35.8619L54.3314 36.6007V36.5783ZM51.9362 30.8029C52.3839 31.564 53.0106 32.6387 53.2792 33.2654L51.2871 34.0267C51.0185 33.3552 50.4588 32.2356 50.0111 31.4297L51.9138 30.8029H51.9362ZM52.6973 39.4436V45.6666H50.9288V39.4436H52.6973ZM59.3007 39.4436V44.6818H52.0257V43.1817H57.5772V40.9432H52.0257V39.4436H59.3007ZM55.764 26.7741C56.2341 27.6695 56.7489 28.8335 56.9951 29.5946L54.8462 30.2433C54.6223 29.4598 54.1074 28.2291 53.7045 27.3113L55.7864 26.7741H55.764ZM57.5099 35.6383C58.8978 36.6009 60.8677 38.011 61.875 38.884L60.6214 40.294C59.6813 39.3762 57.7339 37.9217 56.3236 36.8696L57.5323 35.6383H57.5099ZM60.6438 31.4521C59.9051 32.6609 59.0993 33.9368 58.4502 34.765L56.7041 34.295C57.3085 33.3773 58.0248 31.9671 58.4054 30.9598L60.6662 31.4297L60.6438 31.4521ZM63.8896 33.9371V45.3753C63.8896 46.3826 63.6434 46.8304 62.9047 47.099C62.1884 47.3676 61.0243 47.3679 59.1664 47.3679C59.0768 46.8978 58.8307 46.2263 58.5621 45.7786C59.8156 45.8234 61.0915 45.8234 61.4496 45.7786C61.8078 45.7786 61.9422 45.6663 61.9422 45.3305V33.9147H63.8896V33.9371Z" fill="var(--fill-0, #3A72B9)"/>
<path id="Vector_9" d="M73.4422 40.2661L73.8228 42.1461C71.7187 43.0191 69.5025 43.9147 67.7117 44.6086L67.0402 42.5264C68.6743 42.034 71.0918 41.1391 73.4422 40.2661ZM73.4422 32.2298V34.177H67.3536V32.2298H73.4422ZM71.4947 27.1485V42.034H69.5473V27.1485H71.4947ZM76.1956 30.1258V37.2664C76.1956 40.4674 75.815 44.8102 73.3751 47.5411C73.0617 47.1606 72.2782 46.4888 71.8305 46.2426C74.0242 43.7355 74.2481 40.1092 74.2481 37.244V30.1258H76.1956ZM87.4774 30.1258V32.0506H75.0763V30.1258H87.4774ZM79.3293 34.7814V36.5275H75.412V34.7814H79.3293ZM80.3367 34.7814C80.3367 34.7814 80.3367 35.2965 80.3143 35.5427C80.2471 40.6016 80.1576 42.4822 79.7322 43.0642C79.4189 43.4895 79.0832 43.6681 78.5459 43.7353C78.0982 43.8024 77.3372 43.8025 76.5761 43.7801C76.5313 43.2429 76.3522 42.4817 76.1059 42.034C76.7775 42.1012 77.3595 42.1012 77.6281 42.1012C77.8967 42.1012 78.0534 42.0568 78.1877 41.8553C78.4115 41.4972 78.5012 39.8854 78.5683 35.0727V34.759H80.3367V34.7814ZM87.2536 34.759C85.8434 40.4895 83.2467 44.7653 79.2847 47.4515C78.9937 47.0709 78.2325 46.3319 77.8072 46.0185C81.7245 43.6682 84.142 39.6391 85.3508 34.4011L87.2536 34.7366V34.759ZM82.9332 26.8353C82.7989 36.6398 84.0749 45.2578 85.7537 45.2578C86.1343 45.2578 86.3358 44.1832 86.403 41.7433C86.8059 42.191 87.455 42.6386 87.9251 42.8401C87.6565 46.2426 87.0744 47.2274 85.4851 47.2274C81.9036 47.2274 81.0083 37.2218 80.9411 26.8353H82.9332ZM84.6121 26.8796C85.5298 27.6183 86.582 28.693 87.0745 29.4317L85.5523 30.4165C85.1046 29.6778 84.075 28.5588 83.202 27.7753L84.6345 26.902L84.6121 26.8796Z" fill="var(--fill-0, #3A72B9)"/>
</g>
</svg>
