<svg preserveAspectRatio="none" width="100%" height="100%" overflow="visible" style="display: block;" viewBox="0 0 86.9632 20.7076" fill="none" xmlns="http://www.w3.org/2000/svg">
<g id="Group">
<path id="Vector" d="M9.28961 0.247111C8.88669 10.2754 7.54363 16.6552 1.6117 20.5053C1.34308 20.0576 0.492466 19.1174 3.99351e-06 18.7144C5.70808 15.4687 6.80496 9.44711 7.09596 0.157485L9.28961 0.247111ZM20.37 5.32847V7.2986H0.470062V5.32847H20.37ZM19.2284 9.15615C16.6542 13.8122 12.513 17.5953 7.70032 19.9457C7.38694 19.4532 6.76018 18.7369 6.24533 18.2668C10.9237 16.2298 15.0201 12.6484 17.2809 8.3282L19.2284 9.15615ZM13.0503 6.82806V17.2148C13.0503 18.1102 13.2069 18.2668 14.259 18.2668H17.7287C18.6017 18.2668 18.7583 17.8418 18.8702 15.6928C19.3403 16.051 20.2133 16.3865 20.7953 16.5208C20.5491 19.3412 19.9447 20.1922 17.9077 20.1922H14.0352C11.5953 20.1922 10.9461 19.5428 10.9461 17.2148V6.80565H13.0726L13.0503 6.82806ZM13.7442 0.560802C15.0873 1.45619 16.9004 2.82143 17.8181 3.69443L16.3632 4.99291C15.5125 4.09753 13.7218 2.68736 12.3787 1.70244L13.7442 0.560802Z" fill="var(--fill-0, #3A72B9)"/>
<path id="Vector_2" d="M35.2817 0.337284C35.2369 10.6118 35.3265 17.7751 23.8208 20.7075C23.5969 20.1927 23.0597 19.4091 22.612 18.939C33.5133 16.2977 33.0656 10.1193 33.1104 0.314877H35.2817V0.337284ZM42.6238 10.2535V12.2237H22.7239V10.2535H42.6238ZM24.8057 5.17217C26.5741 5.82132 28.8573 6.94101 29.9989 7.88117L28.6558 9.5152C27.5814 8.59743 25.3653 7.36621 23.5522 6.6499L24.7833 5.17217H24.8057ZM26.7083 1.03134C28.4767 1.63572 30.76 2.68756 31.9016 3.58295L30.6705 5.2842C29.596 4.36643 27.3575 3.20247 25.5668 2.53093L26.7083 1.03134ZM34.5878 14.0812C37.6321 15.4467 40.8331 17.3497 42.6462 18.8718L41.2583 20.4834C39.5123 18.8941 36.4457 16.9468 33.4685 15.5589L34.5878 14.0588V14.0812Z" fill="var(--fill-0, #3A72B9)"/>
<path id="Vector_3" d="M56.5453 0.89526C54.0158 4.61111 49.9866 7.72235 45.7783 9.62505C45.4649 9.08781 44.8605 8.34958 44.3233 7.85712C48.3749 6.24543 52.4489 3.38017 54.6426 9.33707e-05L56.5229 0.917666L56.5453 0.89526ZM64.4247 18.2433V20.1463H45.4649V18.2433H64.4247ZM50.1657 10.2071V19.2057H48.1063V10.2071H50.1657ZM56.12 6.40179V19.385H53.9039V6.40179H56.12ZM65.4544 7.81231C64.9396 8.26 64.3799 8.99825 64.0889 9.60264C60.5521 7.96856 57.284 5.97666 54.0606 2.10412L55.7842 1.27562C58.6942 4.63332 62.0072 6.44684 65.4544 7.81231ZM62.3653 11.2815V13.1844H54.9783V11.2815H62.3653Z" fill="var(--fill-0, #3A72B9)"/>
<path id="Vector_4" d="M86.9632 17.5925V19.6965H67.1976V17.5925H86.9632ZM69.5256 5.10167C70.6448 7.65351 71.9879 11.0113 72.5699 13.0259L70.4657 13.8096C69.9509 11.7726 68.6973 8.28031 67.5781 5.68369L69.5256 5.10167ZM75.368 0.446037V18.421H73.219V0.446037H75.368ZM80.9193 0.446037V18.5324H78.7704V0.446037H80.9193ZM86.6274 6.0646C85.5754 8.75075 84.1204 11.8623 82.9116 13.9664L81.1656 13.0483C82.352 10.9889 83.8741 7.72071 84.7023 5.14648L86.605 6.04219L86.6274 6.0646Z" fill="var(--fill-0, #3A72B9)"/>
</g>
</svg>
