<svg preserveAspectRatio="none" width="100%" height="100%" overflow="visible" style="display: block;" viewBox="0 0 92.4279 14.8637" fill="none" xmlns="http://www.w3.org/2000/svg">
<g id="Group">
<path id="Vector" d="M7.27501 10.2939C5.8424 12.1742 3.33535 13.8081 1.00734 14.6364C0.783499 14.2558 0.313394 13.6961 9.38773e-06 13.3827C2.30563 12.7111 4.79037 11.2788 6.06629 9.75666L7.29742 10.2939H7.27501ZM0.761147 2.3024C1.65653 2.57102 2.86524 3.06352 3.49201 3.46645L2.79809 4.54087C2.21609 4.13794 1.02965 3.57817 0.0894987 3.26479L0.761147 2.28V2.3024ZM14.4605 9.21945V10.5398H0.35824V9.21945H14.4605ZM3.87251 4.22772L4.76795 5.21251C3.76064 6.42128 2.59665 7.71981 1.56696 8.79427L0.514812 7.74171C1.43258 6.91348 2.77566 5.52603 3.87251 4.22772ZM1.94746 0.13116C2.84285 0.399775 4.00685 0.892281 4.61124 1.2952L3.93973 2.32481C3.35772 1.92189 2.19374 1.36212 1.29836 1.04873L1.94746 0.13116ZM14.0576 1.7876H6.78262V6.91377H14.3709V8.10022H5.30515V0.645963H14.0352V1.81001L14.0576 1.7876ZM13.4084 2.70517V5.90657H6.29008V4.87696H11.9311V3.73532H6.29008V2.70517H13.4084ZM8.14805 7.96578V14.838H6.62591V7.96578H8.14805ZM14.8186 13.2488C14.4829 13.5622 14.0351 14.1438 13.8113 14.5019C11.4385 13.7408 8.90913 12.1519 7.45413 10.3611L8.70766 9.77906C9.9612 11.2788 12.4683 12.622 14.841 13.2264L14.8186 13.2488Z" fill="var(--fill-0, #9FA0A0)"/>
<path id="Vector_2" d="M20.8211 12.558C21.8508 13.1176 23.2611 13.2073 24.9847 13.2073C26.7083 13.2073 29.1258 13.095 30.6704 12.8936C30.5137 13.2741 30.2899 13.946 30.2675 14.3489C29.1706 14.416 26.4845 14.5052 24.9399 14.5052C23.0596 14.5052 21.6941 14.3264 20.5525 13.7221C19.8586 13.3415 19.3438 12.8936 18.9633 12.8936C18.4037 12.8936 17.5978 13.7667 16.8143 14.7069L15.8966 13.4532C16.9711 12.4011 18.1127 11.6175 18.9633 11.6175C19.5005 11.6175 19.9033 12.0431 20.8211 12.5132V12.558ZM19.6124 12.1104H18.1797V7.16297H16.1204V5.77541H19.6124V12.1104ZM17.3963 0.716461C18.2246 1.47754 19.2318 2.57419 19.7019 3.31288L18.4707 4.14137C18.0454 3.40268 17.0605 2.26118 16.2323 1.45533L17.3963 0.716461ZM30.4018 2.12643V3.35769H20.2839V2.12643H30.4018ZM29.1483 4.52174V12.088H21.4031V4.52174H29.1483ZM23.0596 0.0224065C23.4849 0.537253 23.9774 1.27599 24.1789 1.74607L22.8582 2.32809C22.6791 1.83563 22.2313 1.09682 21.806 0.537209L23.0596 0V0.0224065ZM22.8134 6.71539H27.6709V5.59616H22.8134V6.71539ZM22.8134 8.84182H27.6709V7.72259H22.8134V8.84182ZM22.8134 10.9912H27.6709V9.84956H22.8134V10.9912ZM26.1711 2.77567C25.8577 3.6039 25.4548 4.47695 25.1414 5.05895L23.9102 4.85784C24.1117 4.20868 24.3355 3.29041 24.4475 2.66364L26.1711 2.77567ZM28.6781 0.514803C28.1633 1.29826 27.6037 2.12643 27.156 2.68605L25.9696 2.30568C26.4173 1.7013 26.9545 0.761187 27.2231 0.112032L28.6781 0.537209V0.514803Z" fill="var(--fill-0, #9FA0A0)"/>
<path id="Vector_3" d="M37.8272 0.828493C36.7528 3.53703 34.9844 5.97694 33.1041 7.52147C32.8355 7.20809 32.1863 6.62605 31.8281 6.35743C33.7085 5.01435 35.3202 2.77607 36.2379 0.38091L37.8496 0.828493H37.8272ZM38.745 6.44706C38.4092 9.93906 37.6258 13.2072 33.1041 14.8637C32.925 14.4832 32.4997 13.8786 32.1639 13.5652C36.3498 12.1998 36.8871 9.35706 37.1557 6.44706H38.745ZM43.0876 6.02133V7.49907H34.2233V6.02133H43.0876ZM44.1397 6.02133C44.1397 6.02133 44.1397 6.5139 44.1174 6.69298C43.9159 11.4833 43.7144 13.3188 43.1548 13.968C42.7966 14.4157 42.3937 14.5501 41.8341 14.6172C41.2968 14.6844 40.3343 14.662 39.3718 14.6172C39.3494 14.1695 39.1479 13.5206 38.8793 13.1176C39.8418 13.2072 40.7596 13.2073 41.1402 13.2073C41.4535 13.2073 41.6326 13.1623 41.7893 13.0056C42.1923 12.5803 42.3937 10.8119 42.5728 6.29021V6.02133H44.1397ZM46.5125 6.11096C46.1319 6.40196 45.5724 6.98411 45.3037 7.38704C43.6249 5.86488 41.7445 3.26848 40.5805 0.895713L41.9684 0.358504C42.9309 2.44027 44.856 4.83506 46.5125 6.13337V6.11096Z" fill="var(--fill-0, #9FA0A0)"/>
<path id="Vector_4" d="M51.0817 0.535023C50.455 2.30341 49.4253 4.0944 48.2613 5.23601C48.1493 4.92263 47.7912 4.18367 47.5673 3.8479C48.5075 2.93013 49.3357 1.56487 49.8282 0.132253L51.1041 0.512617L51.0817 0.535023ZM53.6336 7.92206V9.26535H47.9927V7.92206H53.6336ZM53.3202 4.6764V6.01915H48.7537V4.6764H53.3202ZM53.5888 1.92313V3.3331H49.2686L49.5596 1.92313H53.5888ZM49.3805 13.4286C49.6715 13.2495 50.164 12.8022 50.164 12.1082V5.05676H51.5295V13.2723C51.5295 13.2723 50.0521 14.1898 50.0521 14.7047C49.9401 14.3465 49.6267 13.742 49.3805 13.451V13.4286ZM49.8282 13.3614L50.2983 12.8466L53.2755 11.347C53.2978 11.7499 53.4321 12.3321 53.5217 12.6455C50.7683 14.1228 50.2983 14.4136 50.0297 14.6823L49.8282 13.3838V13.3614ZM55.0886 0.624649C55.693 1.49765 56.3421 2.68408 56.5883 3.46754L55.3348 4.11678C55.111 3.33332 54.5066 2.12442 53.9246 1.18426L55.0886 0.624649ZM61.0205 4.58677V5.99729H55.5139V14.8167H54.1708V4.60918H61.0205V4.58677ZM61.0653 7.45207V8.72815H55.0438V7.45207H61.0653ZM61.1101 10.2277V11.5038H55.0662V10.2277H61.1101ZM58.7149 0.0874399V5.54916H57.3271V0.0874399H58.7149ZM61.7592 4.58677V13.093C61.7592 13.8093 61.6249 14.212 61.1324 14.4582C60.64 14.7044 59.9013 14.7047 58.7149 14.7047C58.6701 14.3241 58.4911 13.6971 58.2896 13.339C59.0954 13.3613 59.8789 13.3613 60.1251 13.339C60.349 13.339 60.4385 13.2721 60.4385 13.0706V4.58677H61.7816H61.7592ZM62.2516 1.07223C61.7368 2.12431 61.0876 3.28848 60.5728 4.04956L59.4088 3.53476C59.9013 2.7513 60.5728 1.45277 60.931 0.512617L62.2293 1.07223H62.2516Z" fill="var(--fill-0, #9FA0A0)"/>
<path id="Vector_5" d="M64.4657 1.81001H68.0919C70.4647 1.81001 72.1883 2.57115 72.1883 4.6753C72.1883 5.79454 71.5839 6.84635 70.5319 7.20451V7.27172C71.8749 7.56272 72.8151 8.48047 72.8151 10.0474C72.8151 12.353 70.9348 13.4723 68.3606 13.4723H64.4432V1.81001H64.4657ZM67.8681 6.6897C69.6365 6.6897 70.3752 6.0181 70.3752 4.94364C70.3752 3.73487 69.5469 3.26479 67.9128 3.26479H66.3011V6.6897H67.8681ZM68.1591 12.0399C69.9723 12.0399 71.0243 11.3904 71.0243 9.98018C71.0243 8.68187 70.017 8.07781 68.1591 8.07781H66.3011V12.0399H68.1591Z" fill="var(--fill-0, #9FA0A0)"/>
<path id="Vector_6" d="M74.2036 12.4219C77.4494 9.24332 79.4193 7.2066 79.4193 5.43822C79.4193 4.20706 78.7477 3.37846 77.4494 3.37846C76.554 3.37846 75.7705 3.96064 75.1438 4.67694L74.1141 3.66975C75.1214 2.5729 76.1511 1.92368 77.6733 1.92368C79.7998 1.92368 81.1877 3.26682 81.1877 5.34859C81.1877 7.43036 79.285 9.51213 76.845 12.064C77.4494 11.9968 78.1881 11.9295 78.7477 11.9295H81.7249V13.4964H74.1813V12.4219H74.2036Z" fill="var(--fill-0, #9FA0A0)"/>
<path id="Vector_7" d="M84.0784 1.81001H87.7047C90.0774 1.81001 91.8011 2.57115 91.8011 4.6753C91.8011 5.79454 91.1967 6.84635 90.1447 7.20451V7.27172C91.4877 7.56272 92.4279 8.48047 92.4279 10.0474C92.4279 12.353 90.5476 13.4723 87.9733 13.4723H84.056V1.81001H84.0784ZM87.5032 6.6897C89.2716 6.6897 90.0103 6.0181 90.0103 4.94364C90.0103 3.73487 89.1821 3.26479 87.548 3.26479H85.9363V6.6897H87.5032ZM87.7942 12.0399C89.6074 12.0399 90.6595 11.3904 90.6595 9.98018C90.6595 8.68187 89.6521 8.07781 87.7942 8.07781H85.9363V12.0399H87.7942Z" fill="var(--fill-0, #9FA0A0)"/>
</g>
</svg>
