<svg preserveAspectRatio="none" width="100%" height="100%" overflow="visible" style="display: block;" viewBox="0 0 141.609 15.0179" fill="none" xmlns="http://www.w3.org/2000/svg">
<g id="Group">
<path id="Vector" d="M14.2814 6.82578V8.2587H2.92361e-05V6.82578H14.2814ZM13.6547 10.0938V11.482H0.716354V10.0938H13.6547ZM13.5204 3.73696V5.14693H0.828249V3.73696H13.5204ZM12.9383 1.56572C9.89403 2.17011 5.28283 2.48334 1.49983 2.52811C1.47744 2.14757 1.29836 1.56539 1.14167 1.22962C4.94705 1.1177 9.49114 0.804447 12.1997 0.244832L12.9383 1.54331V1.56572ZM12.7817 13.0712V14.4811H1.47742V13.0712H12.7817ZM4.18594 4.38566V10.6759H2.64147V4.38566H4.18594ZM7.99136 1.67721V13.7428H6.42441V1.67721H7.99136ZM11.7744 4.38566V10.6983H10.2074V4.38566H11.7744Z" fill="var(--fill-0, #9FA0A0)"/>
<path id="Vector_2" d="M30.2658 12.9575V14.3232H15.7829V12.9575H30.2658ZM29.8181 1.40724V2.74999H16.2306V1.40724H29.8181ZM28.1392 3.8244V13.5619H26.6171V5.07807H19.4092V13.5619H17.9543V3.8244H28.1392ZM27.4006 6.19731V7.31654H18.7153V6.19731H27.4006ZM27.4006 8.39096V9.51019H18.7153V8.39096H27.4006ZM27.4677 10.6518V11.7711H18.7825V10.6518H27.4677ZM23.819 0.288005C23.5504 1.83254 23.237 3.57848 22.946 4.69771L21.5581 4.49605C21.8268 3.33205 22.073 1.45185 22.1625 0.13116L23.819 0.288005Z" fill="var(--fill-0, #9FA0A0)"/>
<path id="Vector_3" d="M34.3857 6.13118V8.34724C34.3857 10.2947 34.0946 13.1375 32.662 15.0178C32.4158 14.7268 31.7442 14.1449 31.4085 13.9658C32.662 12.287 32.7963 9.95888 32.7963 8.30242V6.13118H34.3632H34.3857ZM45.3317 1.94554V3.37791H32.6397V1.94554H45.3317ZM45.7123 6.13118V7.60891H33.6693V6.13118H45.7123ZM36.3107 3.40032C36.8255 4.04947 37.4299 4.98961 37.6985 5.61638L36.3107 6.24321C36.0868 5.61644 35.5273 4.65386 35.0124 3.95994L36.3107 3.40032ZM39.064 0.109846C39.5341 0.669462 39.9818 1.47551 40.2057 1.99035L38.6163 2.46034C38.4372 1.92311 37.9896 1.07221 37.5419 0.49021L39.064 0.08744V0.109846ZM43.4067 4.04956C42.8023 4.98972 42.1755 6.01926 41.6607 6.69079L40.4743 6.1984C40.922 5.45971 41.4591 4.3182 41.7501 3.51235L43.4067 4.04956Z" fill="var(--fill-0, #9FA0A0)"/>
<path id="Vector_4" d="M61.8009 12.5804V14.08H47.6985V12.5804H61.8009ZM49.355 3.64898C50.1385 5.46213 51.101 7.85735 51.5263 9.31235L50.0265 9.87197C49.6684 8.41697 48.7507 5.93208 47.9672 4.07415L49.355 3.64898ZM53.5185 0.358504V13.1848H51.974V0.358504H53.5185ZM57.4807 0.358504V13.2745H55.9361V0.358504H57.4807ZM61.5546 4.34303C60.8159 6.24573 59.7639 8.48369 58.9132 9.98346L57.6821 9.33476C58.5327 7.85737 59.6071 5.52933 60.2115 3.69379L61.577 4.34303H61.5546Z" fill="var(--fill-0, #9FA0A0)"/>
<path id="Vector_5" d="M66.1277 2.4669V11.6224H64.5832V2.4669H66.1277ZM75.7307 5.86941V7.25697H65.2995V5.86941H75.7307ZM76.4694 2.4669V10.6595H65.5009V9.20469H74.9249V3.92168H65.5009V2.4669H76.4694ZM71.2761 0.20603V11.9804C71.2761 12.9429 71.4329 13.0996 72.3506 13.0996H75.395C76.2456 13.0996 76.4022 12.6069 76.5366 10.6371C76.9171 10.9057 77.5663 11.1744 78.0364 11.2863C77.8125 13.7262 77.3201 14.5992 75.5293 14.5992H72.2387C70.2689 14.5992 69.7093 14.0397 69.7093 11.9356V0.183624H71.2986L71.2761 0.20603Z" fill="var(--fill-0, #9FA0A0)"/>
<path id="Vector_6" d="M93.5006 1.76629V3.04236H79.4654V1.76629H93.5006ZM92.068 5.1912V6.42246H81.7263V14.8391H80.2937V5.1912H92.068ZM85.8675 7.09411C84.9945 8.03427 83.6738 9.13103 82.6441 9.80256C82.5546 9.55633 82.2188 8.88471 82.0173 8.59371C82.9575 8.05648 84.0767 7.29562 84.793 6.57931L85.8451 7.09411H85.8675ZM84.1662 2.97514C84.4796 3.53476 84.9273 4.27354 85.1288 4.74362L83.7185 5.28083C83.517 4.81075 83.1366 4.00473 82.8008 3.42273L84.1662 2.97514ZM84.7034 9.10851V13.563H83.4276V9.10851H84.7034ZM89.4266 9.10851V12.8466H84.2334V11.7946H88.1954V10.2053H84.2334V9.13092H89.4266V9.10851ZM86.8972 0.08744C87.2329 0.736594 87.5911 1.56515 87.7702 2.10238L86.2256 2.57237C86.069 2.01276 85.7107 1.11696 85.3974 0.467804L86.8748 0.08744H86.8972ZM88.1283 6.42246C89.1356 7.11639 90.5235 8.12376 91.2398 8.72815L90.3444 9.73535C89.6729 9.08619 88.285 8.03392 87.2777 7.29522L88.1283 6.42246ZM90.3667 3.42273C89.8519 4.29573 89.2699 5.19124 88.7999 5.79563L87.5463 5.46008C87.9716 4.81092 88.4864 3.80348 88.7551 3.08718L90.3667 3.42273ZM92.6724 5.1912V13.3614C92.6724 14.0777 92.4933 14.3912 91.9784 14.5926C91.4636 14.7717 90.6354 14.7943 89.3147 14.7943C89.2475 14.4585 89.0685 13.9884 88.8894 13.6751C89.7848 13.6974 90.7025 13.6974 90.9488 13.6751C91.2174 13.6751 91.3069 13.5852 91.3069 13.3614V5.21361H92.6948L92.6724 5.1912Z" fill="var(--fill-0, #9FA0A0)"/>
<path id="Vector_7" d="M99.9043 0.626289C98.8746 3.31244 97.2406 6.08812 95.517 7.87889C95.3827 7.52073 94.9574 6.71504 94.6887 6.35688C96.1885 4.85711 97.6211 2.52911 98.4941 0.201112L99.9043 0.648695V0.626289ZM98.2926 2.95438V14.8407H96.8152V4.43157L98.2702 2.97678L98.2926 2.95438ZM103.441 11.1245C102.658 12.5124 101.426 13.923 100.33 14.8183C100.061 14.5497 99.479 14.0798 99.1433 13.8784C100.24 13.0949 101.359 11.8858 102.031 10.6994L103.441 11.147V11.1245ZM109.664 8.4385V9.91624H99.3447V8.4385H109.664ZM109.507 3.42437V4.85729H99.7476V3.42437H109.507ZM103.128 0.290738V9.19977H101.65V0.290738H103.128ZM106.776 10.6994C107.829 11.7291 108.992 13.1169 109.552 14.0571L108.299 14.8632C107.784 13.9006 106.62 12.4231 105.59 11.371L106.776 10.6994ZM107.336 0.290738V9.24459H105.881V0.290738H107.336Z" fill="var(--fill-0, #9FA0A0)"/>
<path id="Vector_8" d="M113.603 2.10457V6.40224C113.603 8.86455 113.402 12.5806 112.081 14.9757C111.812 14.7071 111.118 14.2815 110.76 14.1248C111.969 11.8864 112.081 8.66307 112.081 6.37984V2.08216H113.603V2.10457ZM125.265 2.10457V3.51454H112.864V2.10457H125.265ZM125.445 12.7597V14.1921H113.603V12.7597H125.445ZM115.707 5.26061C116.401 7.00661 117.162 9.17772 117.52 10.6551L116.11 11.2371C115.819 9.75974 115.058 7.47664 114.409 5.77541L115.73 5.26061H115.707ZM119.065 0C119.445 0.716308 119.871 1.65651 120.05 2.28328L118.505 2.73086C118.326 2.10409 117.923 1.1196 117.565 0.38091L119.043 0H119.065ZM119.087 4.47693C119.647 6.22293 120.229 8.39461 120.475 9.89438L119.02 10.3196C118.819 8.84217 118.237 6.58145 117.722 4.85784L119.087 4.49933V4.47693ZM124.661 4.94692C123.766 7.96884 122.333 11.3042 120.565 13.9232C120.363 13.6546 119.893 13.2294 119.58 13.0056C121.191 10.5657 122.445 7.20778 123.072 4.40971L124.661 4.96932V4.94692Z" fill="var(--fill-0, #9FA0A0)"/>
<path id="Vector_9" d="M129.477 0.516442C129.006 2.28483 128.178 4.1431 127.216 5.35187C127.104 5.03849 126.746 4.32196 126.499 4.00857C127.26 3.04604 127.865 1.63589 128.223 0.180891L129.499 0.516442H129.477ZM131.558 8.10514V9.40362H126.88V8.10514H131.558ZM131.178 4.83707V6.1126H127.484V4.83707H131.178ZM127.731 13.7237C128.044 13.4775 128.514 12.9179 128.514 12.1121V5.55298H129.857V13.0296C129.857 13.0296 128.469 14.1936 128.469 14.7085C128.335 14.4175 127.954 13.9251 127.708 13.7013L127.731 13.7237ZM131.491 1.85974V3.15822H128.133L128.402 1.85974H131.491ZM128.223 13.4548L128.559 12.94L131.155 11.1491C131.245 11.5073 131.446 12.0222 131.581 12.2908C129.141 14.0368 128.715 14.3727 128.492 14.6861L128.223 13.4324V13.4548ZM134.983 12.5372C135.767 13.0297 136.729 13.1641 137.96 13.1641C138.945 13.1641 140.557 13.0967 141.609 12.9624C141.452 13.3653 141.273 14.0815 141.251 14.4844C140.445 14.5292 138.9 14.5965 137.938 14.5965C136.595 14.5965 135.655 14.373 134.782 13.8357C134.222 13.4776 133.797 13.0745 133.483 13.0745C133.058 13.0745 132.387 13.9475 131.849 14.7981L130.909 13.41C131.782 12.4922 132.767 11.776 133.506 11.776C133.976 11.776 134.334 12.1567 134.983 12.5597V12.5372ZM133.976 12.6717H132.61V6.9859H131.29V5.6202H133.976V12.6717ZM132.879 0.650881C133.327 1.59104 133.842 2.79996 134.043 3.6058L132.745 4.05339C132.543 3.22516 132.073 1.9714 131.648 1.03124L132.879 0.628475V0.650881ZM141.318 1.99418V3.26971H134.334V1.99418H141.318ZM134.401 5.9563C134.67 5.86676 134.894 5.48629 135.14 4.90429C135.386 4.34467 136.214 2.12829 136.55 0.113672L137.96 0.38255C137.401 2.55386 136.505 4.88177 135.655 6.4487V6.49351C135.655 6.49351 134.826 6.96319 134.826 7.20942C134.759 6.94081 134.535 6.29207 134.401 5.9563ZM141.251 8.79919V10.0971H134.491V8.79919H141.251ZM134.826 6.09019L135.543 5.73223H140.938V6.9859H136.08C135.476 6.9859 134.961 7.07512 134.826 7.20942V6.09019ZM138.744 3.91895V12.6045H137.423V3.91895H138.744Z" fill="var(--fill-0, #9FA0A0)"/>
</g>
</svg>
