<svg preserveAspectRatio="none" width="100%" height="100%" overflow="visible" style="display: block;" viewBox="0 0 78.2144 14.9103" fill="none" xmlns="http://www.w3.org/2000/svg">
<g id="Group">
<path id="Vector" d="M7.27501 10.3201C5.84239 12.2004 3.33534 13.8344 1.00734 14.6626C0.783492 14.282 0.313388 13.7223 2.98023e-06 13.4089C2.30562 12.7374 4.79023 11.305 6.06615 9.78289L7.29741 10.3201H7.27501ZM0.738734 2.32863C1.63412 2.59725 2.84282 3.08976 3.46959 3.49268L2.77567 4.5671C2.19367 4.16417 1.00726 3.60441 0.0894923 3.29102L0.761004 2.30623L0.738734 2.32863ZM14.4604 9.24568V10.566H0.358097V9.24568H14.4604ZM3.85009 4.25395L4.74553 5.23875C3.73822 6.44752 2.57424 7.74604 1.54455 8.8205L0.492399 7.76795C1.38778 6.93971 2.75325 5.55226 3.85009 4.25395ZM1.94745 0.157392C2.82045 0.426007 4.00685 0.918513 4.61123 1.32144L3.93972 2.35104C3.35772 1.94812 2.19373 1.38835 1.29835 1.07496L1.94745 0.157392ZM14.0352 1.81383H6.7602V6.94H14.3485V8.12645H5.28274V0.672195H14.0128V1.83624L14.0352 1.81383ZM13.4084 2.73141V5.9328H6.29008V4.90319H11.931V3.76156H6.29008V2.73141H13.4084ZM8.12563 7.99201V14.8642H6.60349V7.99201H8.12563ZM14.8186 13.275C14.4828 13.5884 14.0351 14.17 13.8113 14.5281C11.4385 13.7671 8.90912 12.1781 7.45412 10.3873L8.70765 9.8053C9.96119 11.3051 12.4906 12.6482 14.841 13.2526L14.8186 13.275Z" fill="var(--fill-0, #9FA0A0)"/>
<path id="Vector_2" d="M20.795 12.5842C21.8247 13.1439 23.2349 13.2335 24.9585 13.2335C26.6821 13.2335 29.0998 13.1213 30.6443 12.9198C30.4876 13.3003 30.2638 13.9722 30.2414 14.3751C29.1445 14.4423 26.436 14.5314 24.9138 14.5314C23.0335 14.5314 21.6456 14.3527 20.5264 13.7483C19.8325 13.3678 19.3176 12.9198 18.937 12.9198C18.3774 12.9198 17.5717 13.7929 16.7882 14.7331L15.8704 13.4794C16.9448 12.4273 18.0864 11.6437 18.937 11.6437C19.4743 11.6437 19.8772 12.0694 20.795 12.5394V12.5842ZM19.5863 12.1367H18.1536V7.1892H16.0943V5.80164H19.5863V12.1367ZM17.3702 0.742693C18.1985 1.50377 19.2057 2.60042 19.6758 3.33911L18.4446 4.16761C18.0193 3.42891 17.0344 2.28741 16.2062 1.48156L17.3478 0.742693H17.3702ZM30.3757 2.15266V3.38393H20.2578V2.15266H30.3757ZM29.1222 4.54797V12.1143H21.377V4.54797H29.1222ZM23.0335 0.0486385C23.4588 0.563485 23.9512 1.30222 24.1527 1.7723L22.8321 2.35432C22.653 1.86186 22.2052 1.12306 21.7799 0.563441L23.0335 0.026232V0.0486385ZM22.7873 6.74162H27.6447V5.62239H22.7873V6.74162ZM22.7873 8.86805H27.6447V7.74882H22.7873V8.86805ZM22.7873 11.0174H27.6447V9.87579H22.7873V11.0174ZM26.1674 2.8019C25.854 3.63013 25.451 4.50318 25.1376 5.08518L23.9065 4.88407C24.108 4.23491 24.3542 3.31664 24.4437 2.68987L26.1674 2.8019ZM28.6744 0.541035C28.1596 1.3245 27.6 2.15266 27.1523 2.71228L25.9658 2.33191C26.4135 1.72753 26.9508 0.787419 27.2194 0.138264L28.6744 0.563441V0.541035Z" fill="var(--fill-0, #9FA0A0)"/>
<path id="Vector_3" d="M36.1292 4.12061C35.3458 5.41892 33.846 6.82923 32.4805 7.56793C32.3015 7.23216 31.9656 6.71731 31.697 6.4487C32.9953 5.88908 34.428 4.70256 35.1219 3.51618L36.1068 4.12061H36.1292ZM38.0991 8.30625L38.3453 8.26198L39.1511 8.57513C38.1662 12.0895 35.5919 13.9027 32.4357 14.7533C32.3014 14.4175 32.0104 13.8803 31.7418 13.6117C34.607 12.9625 37.0245 11.3284 37.8303 8.50791V8.30625H38.0767H38.0991ZM39.6212 3.02378V4.23264H31.9209V3.02378H39.6212ZM38.3229 8.30625V9.53751H32.2566V8.30625H38.3229ZM33.5325 0.471629C33.9578 1.07601 34.3832 1.92696 34.5399 2.48657L33.3982 2.97897C33.2639 2.41935 32.861 1.56891 32.4581 0.919759L33.5325 0.471629ZM34.7414 7.34386L36.062 7.59033C35.5472 8.93341 34.6965 10.4555 34.0697 11.418L32.7267 11.1267C33.4206 10.1194 34.2713 8.5974 34.7414 7.34386ZM33.6444 10.254C35.3457 10.9031 37.3827 11.9997 38.5243 12.7832L37.6066 13.7685C36.5097 12.9403 34.428 11.7983 32.7267 11.1491L33.6222 10.2764L33.6444 10.254ZM36.4873 0.113672V7.14275H35.0995V0.113672H36.4873ZM39.1959 5.64261L38.39 6.69462C37.8303 6.15739 36.2634 4.94866 35.5919 4.50097L36.3306 3.87414C36.8902 4.16514 38.7706 5.32922 39.2183 5.64261H39.1959ZM39.3526 0.919759C38.8602 1.63607 38.3453 2.3969 37.92 2.91175L36.9575 2.46417C37.338 1.90455 37.8305 1.00934 38.0767 0.404956L39.3526 0.919759ZM45.3069 4.0982C44.6129 9.4929 43.0012 12.8731 39.1287 14.9102C38.9944 14.5968 38.5915 13.9923 38.3229 13.7013C41.9492 12.0001 43.3594 8.86602 43.919 3.98617L45.3069 4.12061V4.0982ZM42.4193 0.427363C41.9492 3.53883 41.1209 6.42594 39.8002 8.30625C39.5764 8.06002 39.0168 7.56773 38.7034 7.36627C39.9569 5.70981 40.6733 3.02376 41.0315 0.203298L42.3969 0.404956L42.4193 0.427363ZM46.6723 13.522C46.3365 13.7907 45.9112 14.328 45.6874 14.7085C42.6878 12.873 41.1881 9.15702 40.3822 4.54578L41.6134 4.32227C42.3073 8.44104 43.807 11.9775 46.6499 13.522H46.6723ZM46.2918 3.13582V4.52338H40.8299V3.13582H46.2918Z" fill="var(--fill-0, #9FA0A0)"/>
<path id="Vector_4" d="M61.8449 8.66311V10.0955H48.1007V8.66311H61.8449ZM61.7106 1.72366V5.17098H60.1661V3.15658H49.7123V5.17098H48.235V1.72366H61.7106ZM58.129 4.7234V6.13337H50.7421V4.7234H58.129ZM55.7562 7.74499V13.0728C55.7562 13.9234 55.5549 14.3262 54.8833 14.5724C54.2342 14.7963 53.3163 14.8189 51.9956 14.8189C51.9061 14.3712 51.5927 13.6998 51.3465 13.2969C52.3762 13.3417 53.4731 13.3411 53.7641 13.3187C54.0551 13.3187 54.1446 13.2519 54.1446 13.028V7.72259H55.7338L55.7562 7.74499ZM55.1071 0.0224065C55.5548 0.604407 56.0025 1.38809 56.2039 1.92532L54.637 2.46253C54.4803 1.90291 54.055 1.07437 53.6297 0.46999L55.1071 0V0.0224065ZM58.0843 4.7234L58.4424 4.65618L59.4497 5.43986C58.3081 6.62624 56.6293 7.87963 54.9952 8.64071C54.7938 8.39448 54.3908 7.96886 54.167 7.7674C55.4877 7.11825 56.9651 5.90956 57.6814 5.05895V4.7458H58.1066L58.0843 4.7234Z" fill="var(--fill-0, #9FA0A0)"/>
<path id="Vector_5" d="M69.1933 0.579836C68.0741 3.26599 66.2833 5.99681 64.4926 7.74281C64.3135 7.38465 63.821 6.57898 63.5076 6.24321C65.1641 4.76583 66.7534 2.46021 67.6936 0.08744L69.1933 0.579836ZM67.5817 2.68386V14.8167H66.0147V4.22881L67.5817 2.68386ZM77.9457 3.28829C75.573 6.57883 72.1033 9.28765 68.9695 10.8546C68.7233 10.5412 68.2532 10.0039 67.8503 9.71294C70.9393 8.23555 74.3866 5.54927 76.5131 2.3035L77.9457 3.26588V3.28829ZM72.6182 0.378724V11.9962C72.6182 12.8916 72.7525 13.0482 73.4464 13.0482H75.7297C76.5132 13.0482 76.625 12.3767 76.7369 9.71294C77.1174 10.0039 77.789 10.3175 78.2144 10.4294C78.0353 13.4513 77.6324 14.5478 75.8416 14.5478H73.2449C71.4989 14.5478 70.984 13.966 70.984 11.9514V0.378724H72.5958H72.6182Z" fill="var(--fill-0, #9FA0A0)"/>
</g>
</svg>
