<svg preserveAspectRatio="none" width="100%" height="100%" overflow="visible" style="display: block;" viewBox="0 0 109.077 20.7912" fill="none" xmlns="http://www.w3.org/2000/svg">
<g id="Group">
<path id="Vector" d="M1.18646 6.29085C2.5743 6.96239 4.34266 8.01475 5.21566 8.8206L3.96213 10.477C3.1339 9.64881 1.41024 8.50728 6.0685e-06 7.76859L1.18646 6.29085ZM4.45466 12.0887L5.99921 13.3647C4.96951 15.7375 3.6488 18.446 2.4848 20.6173L0.649248 19.274C1.74609 17.5504 3.26828 14.6853 4.45466 12.1111V12.0887ZM2.26088 0.403957C3.62634 1.0755 5.32757 2.14972 6.17818 2.95556L4.87997 4.5896C4.09651 3.76137 2.41759 2.59743 1.02975 1.85874L2.26088 0.403957ZM8.73007 0.873946C9.64783 2.1051 10.6328 3.78408 10.9909 4.92569L9.08816 5.82086C8.77477 4.70163 7.85709 2.95593 6.93932 1.65763L8.70766 0.873946H8.73007ZM18.2435 6.4477V8.41783H9.67018V20.7736H7.61083V6.4701H18.2435V6.4477ZM18.1987 14.3495V16.1404H8.95386V14.3495H18.1987ZM18.1987 10.477V12.2679H8.99867V10.477H18.1987ZM14.5948 0.157485V7.72377H12.4907V0.157485H14.5948ZM19.2955 6.4477V18.3565C19.2955 19.4309 19.0717 20.0127 18.333 20.3485C17.5943 20.6842 16.4528 20.707 14.7515 20.707C14.662 20.1473 14.371 19.274 14.1024 18.7144C15.2664 18.7816 16.4303 18.7816 16.7885 18.7592C17.1242 18.7592 17.2362 18.6474 17.2362 18.3341V6.4701H19.2955V6.4477ZM20.2134 1.50078C19.4523 3.00055 18.5569 4.61196 17.7958 5.68642L15.9827 4.97051C16.699 3.82889 17.6616 2.06018 18.154 0.717101L20.191 1.47837L20.2134 1.50078Z" fill="var(--fill-0, #3A72B9)"/>
<path id="Vector_2" d="M33.8924 13.9194C33.0194 17.8144 30.8034 19.8286 23.1926 20.7687C23.0583 20.2763 22.633 19.4261 22.2972 19.0008C29.326 18.3069 31.0719 16.8742 31.7883 13.9194H33.8924ZM31.0943 0.174973V4.89837C31.0943 8.18891 30.1542 10.8976 23.6626 12.3078C23.4835 11.8601 22.9912 11.0762 22.633 10.6956C28.453 9.48687 29.1917 7.36066 29.1917 4.87596V0.19738H31.0943V0.174973ZM38.9962 4.27153V2.92824H23.8193V1.47346H40.9212V5.72632H25.3639V4.29394H38.9962V4.27153ZM26.4607 4.29394C26.2816 5.72656 26.0354 7.40514 25.8116 8.50199H23.8865C24.1328 7.36037 24.4238 5.68179 24.5805 4.29394H26.4607ZM40.966 7.06961V8.50199H24.5581L24.961 7.06961H40.9436H40.966ZM39.802 11.3449V17.2995H37.6754V13.0685H27.4904V17.4782H25.4534V11.3225H39.802V11.3449ZM34.0715 16.4486C36.8025 17.0978 40.6079 18.3065 42.6449 19.1795L41.4808 20.7911C39.5781 19.8957 35.7952 18.6202 32.9971 17.8592L34.0939 16.4486H34.0715ZM36.1533 0.174973V10.8301H34.161V0.174973H36.1533ZM42.2642 7.06961C42.2642 7.06961 42.2642 7.47262 42.2418 7.71885C42.1075 9.21862 41.9733 9.97957 41.5927 10.3825C41.2793 10.6959 40.8764 10.8301 40.4287 10.8525C40.0258 10.8973 39.2424 10.8749 38.4142 10.8525C38.4142 10.4719 38.2351 9.86787 38.0336 9.48733C38.6604 9.57687 39.1975 9.57641 39.4438 9.57641C39.6676 9.57641 39.8244 9.5768 39.9363 9.42011C40.093 9.24103 40.2049 8.68104 40.3168 7.36035V7.11443H42.2866L42.2642 7.06961Z" fill="var(--fill-0, #3A72B9)"/>
<path id="Vector_3" d="M53.543 10.9197V20.6124H51.4389V12.9341H47.3649V20.7687H45.3726V10.9197H53.543ZM52.3118 17.5903V19.6052H46.268V17.5903H52.3118ZM61.1313 1.09309V8.79327H48.5512V1.09309H61.1313ZM50.5658 6.77833H58.9825V3.10749H50.5658V6.77833ZM64.2652 10.9197V20.6572H62.1611V12.9341H57.7514V20.7687H55.7367V10.9197H64.2652ZM63.146 17.5903V19.6052H56.6992V17.5903H63.146Z" fill="var(--fill-0, #3A72B9)"/>
<path id="Vector_4" d="M78.6588 0.89526C76.1293 4.61111 72.1001 7.72235 67.8918 9.62505C67.5784 9.08781 66.9741 8.34958 66.4369 7.85712C70.4885 6.24543 74.5625 3.38017 76.7562 9.33707e-05L78.6364 0.917666L78.6588 0.89526ZM86.5382 18.2433V20.1463H67.5784V18.2433H86.5382ZM72.2792 10.2071V19.2057H70.2197V10.2071H72.2792ZM78.2335 6.40179V19.385H76.0174V6.40179H78.2335ZM87.5678 7.81231C87.053 8.26 86.471 8.99825 86.2024 9.60264C82.6656 7.96856 79.3975 5.97666 76.1741 2.10412L77.8978 1.27562C80.8078 4.63332 84.1206 6.44684 87.5678 7.81231ZM84.4789 11.2815V13.1844H77.0918V11.2815H84.4789Z" fill="var(--fill-0, #3A72B9)"/>
<path id="Vector_5" d="M109.077 17.5925V19.6965H89.3112V17.5925H109.077ZM91.6615 5.10167C92.7808 7.65351 94.1014 11.0113 94.7058 13.0259L92.6016 13.8096C92.0868 11.7726 90.8333 8.28031 89.7365 5.68369L91.6839 5.10167H91.6615ZM97.4816 0.446037V18.421H95.3326V0.446037H97.4816ZM103.033 0.446037V18.5324H100.884V0.446037H103.033ZM108.741 6.0646C107.689 8.75075 106.234 11.8623 105.025 13.9664L103.279 13.0483C104.466 10.9889 105.988 7.72071 106.816 5.14648L108.719 6.04219L108.741 6.0646Z" fill="var(--fill-0, #3A72B9)"/>
</g>
</svg>
