<svg width="24" height="24" viewBox="0 0 24 24" fill="none" xmlns="http://www.w3.org/2000/svg">
<path d="M17.3954 12.3453C19.9181 12.3453 21.9621 14.3978 21.9621 16.9286V17.0016C21.9621 19.4196 19.7689 21.4641 17.4996 21.4641H16.4346C16.4149 21.464 16.3952 21.4632 16.3756 21.4616C12.7686 21.1621 9.05686 19.5836 6.72136 17.3861C3.96486 14.7926 2.03711 10.8166 2.03711 7.12231C2.03711 4.45506 4.01536 2.53906 6.60386 2.53906C9.12636 2.53906 11.1704 4.59156 11.1704 7.12231C11.1704 8.90431 10.1349 10.3748 8.55236 11.0861C9.08711 11.9477 9.72982 12.7374 10.4649 13.4361C11.3154 14.2436 12.2589 14.8971 13.2481 15.3536C13.8646 13.5683 15.4556 12.3453 17.3956 12.3453H17.3954Z" fill="white"/>
</svg>
