<svg preserveAspectRatio="none" width="100%" height="100%" overflow="visible" style="display: block;" viewBox="0 0 30 30" fill="none" xmlns="http://www.w3.org/2000/svg">
<g id="Frame">
<path id="Vector" d="M24.2798 19.7818C24.0212 21.2636 23.4521 24.0257 23.321 24.3257C23.19 24.6257 22.2253 25.2402 21.1638 24.3257C20.1023 23.4112 18.4073 21.9341 18.4073 21.9341C18.4073 21.9341 15.2812 24.9509 11.6962 21.9341L8.70031 24.5647C8.70031 24.5647 7.26604 25.5992 6.66288 23.7277C6.27584 21.7486 5.63279 18.9836 5.58453 18.7058C5.53595 18.4277 5.45224 16.2708 8.34069 14.5205L8.70031 14.162C8.70031 14.162 8.43731 10.8999 9.88821 7.10724H19.9838C20.6872 8.99852 21.2018 11.3284 21.2835 14.162C21.2835 14.162 22.2783 14.9565 23.6803 16.0751C24.4592 17.0898 24.5383 18.2998 24.2798 19.7818ZM15.0518 8.30276C13.7281 8.30276 12.6549 9.3736 12.6549 10.6943C12.6549 12.015 13.7281 13.0857 15.0518 13.0857C16.3757 13.0857 17.4486 12.015 17.4486 10.6943C17.4486 9.3736 16.3757 8.30276 15.0518 8.30276ZM14.9321 0.171875C14.9321 0.171875 17.7122 1.85021 19.5971 6.1506H10.2867C11.2122 4.10809 12.6631 1.9807 14.9321 0.171875ZM12.4152 23.8472C14.9635 25.2051 17.6882 23.8475 17.6882 23.8475C18.3808 23.6631 18.6473 24.3257 18.6473 24.3257V27.4346C18.3042 28.1727 17.6886 27.9128 17.6886 27.9128L16.7298 27.0759C16.7298 27.0759 15.8208 28.9406 15.5311 29.4674C15.2417 29.9941 14.584 29.9303 14.3326 29.3477C14.0816 28.7656 13.1342 27.0759 13.1342 27.0759L12.2954 27.9128C11.5621 28.2498 11.3367 27.315 11.3367 27.315V24.2061C11.6554 23.3986 12.4152 23.8472 12.4152 23.8472Z" fill="url(#paint0_linear_0_137)"/>
</g>
<defs>
<linearGradient id="paint0_linear_0_137" x1="14.9914" y1="0.171875" x2="14.9914" y2="29.8264" gradientUnits="userSpaceOnUse">
<stop stop-color="#43D9A4"/>
<stop offset="1" stop-color="#43A0D9"/>
</linearGradient>
</defs>
</svg>
