<svg preserveAspectRatio="none" width="100%" height="100%" overflow="visible" style="display: block;" viewBox="0 0 30 30" fill="none" xmlns="http://www.w3.org/2000/svg">
<g id="Frame">
<path id="Vector" d="M16.875 2.05256C16.8776 2.33557 16.8237 2.61625 16.7164 2.87812C16.609 3.14 16.4505 3.3778 16.25 3.57756V6.14756H22.5C24.57 6.14756 26.25 7.97756 26.25 10.2376V23.8726C26.25 26.1301 24.57 27.9626 22.5 27.9626H7.5C5.43 27.9626 3.75 26.1301 3.75 23.8726V10.2351C3.75 7.97506 5.43 6.14506 7.5 6.14506H13.75V3.57756C13.4344 3.25679 13.2259 2.84622 13.1529 2.4022C13.0799 1.95817 13.1462 1.50245 13.3425 1.09756C13.745 0.267563 14.6175 -0.157437 15.4525 0.0675627C16.2875 0.292563 16.875 1.11256 16.875 2.05256ZM0 12.9626H2.5V21.1476H0V12.9626ZM30 12.9626H27.5V21.1476H30V12.9626ZM11.25 19.1001C12.285 19.1001 13.125 18.1826 13.125 17.0526C13.125 15.9251 12.285 15.0076 11.25 15.0076C10.215 15.0076 9.375 15.9251 9.375 17.0526C9.375 18.1826 10.215 19.1001 11.25 19.1001ZM20.625 17.0526C20.625 15.9251 19.785 15.0076 18.75 15.0076C17.715 15.0076 16.875 15.9251 16.875 17.0526C16.875 18.1826 17.715 19.1001 18.75 19.1001C19.785 19.1001 20.625 18.1826 20.625 17.0526Z" fill="url(#paint0_linear_0_116)"/>
</g>
<defs>
<linearGradient id="paint0_linear_0_116" x1="15" y1="7.10081" x2="15" y2="22.5385" gradientUnits="userSpaceOnUse">
<stop stop-color="#5D97FF"/>
<stop offset="1" stop-color="#337CFF"/>
</linearGradient>
</defs>
</svg>
