<svg preserveAspectRatio="none" width="100%" height="100%" overflow="visible" style="display: block;" viewBox="0 0 24 24" fill="none" xmlns="http://www.w3.org/2000/svg">
<g id="Frame">
<path id="Vector" d="M12.0008 7.13388C11.4068 7.13513 10.8238 6.9744 10.3144 6.669C9.79531 6.36611 9.36411 5.93318 9.06331 5.41287C8.44683 4.36781 8.44683 3.06797 9.06331 2.02294C9.36394 1.50215 9.79515 1.06874 10.3144 0.765469C10.8243 0.461345 11.407 0.300781 12.0008 0.300781C12.5945 0.300781 13.1772 0.461345 13.6872 0.765469C14.2064 1.06873 14.6376 1.50214 14.9382 2.02294C15.5549 3.06792 15.5549 4.36788 14.9382 5.41287C14.6375 5.93313 14.2065 6.36607 13.6875 6.669C13.1781 6.97434 12.595 7.13507 12.0011 7.13388H12.0008ZM12.0008 11.1252C14.7792 8.55094 18.422 7.12552 22.2008 7.13384V19.6274C20.2887 19.6255 18.3947 19.997 16.625 20.721C14.9159 21.4229 13.3488 22.4328 12.0008 23.7008C10.6529 22.4328 9.08586 21.423 7.37691 20.721C5.60812 19.9936 3.71329 19.622 1.80078 19.6274V7.13384C5.57961 7.12552 9.22234 8.55094 12.0008 11.1252Z" fill="var(--fill-0, black)"/>
</g>
</svg>
