<svg preserveAspectRatio="none" width="100%" height="100%" overflow="visible" style="display: block;" viewBox="0 0 24 24" fill="none" xmlns="http://www.w3.org/2000/svg">
<g id="Frame">
<path id="Vector" d="M23.5543 9.77257C23.3522 9.361 22.7945 8.89099 22.7945 8.89099L20.5029 2.64685C20.0256 1.46085 18.6253 0.839844 18.0164 0.839844H5.96651C5.35769 0.839844 3.95251 1.46328 3.48006 2.64685L1.18356 8.89099C1.18356 8.89099 0.625875 9.35856 0.423744 9.7677C0.219178 10.1793 0 10.5446 0 13.3184C0 16.0167 0.533333 16.9762 1.17139 17.3099L1.67306 17.5997V20.1056C1.67306 20.9214 1.86545 21.1601 2.62283 21.1601H4.32755C5.08737 21.1601 5.59635 21.1601 5.59635 20.3491V17.9065H18.389V20.3467C18.389 21.1577 18.9005 21.1577 19.6578 21.1577H21.3577C22.1175 21.1577 22.3075 20.9141 22.3075 20.1032V17.5997L22.8091 17.3099C23.4472 16.9762 23.9805 16.0167 23.9805 13.3135C23.9805 10.5446 23.7613 10.1793 23.5543 9.77257ZM4.23744 8.15552C4.32998 7.80484 4.97291 5.03589 5.25297 4.07637C5.36986 3.74274 6.12481 2.7613 7.00396 2.81245H16.9766C17.8533 2.75643 18.6107 3.74517 18.7227 4.07637C19.0027 5.03589 19.6457 7.79997 19.7382 8.15552C19.8502 8.57196 19.4752 8.5403 19.4752 8.5403H4.50046C4.50046 8.5403 4.12542 8.57683 4.23744 8.15552ZM4.48584 14.9379C3.99568 14.9331 3.52733 14.7344 3.18323 14.3853C2.83913 14.0362 2.64728 13.565 2.64962 13.0749C2.64962 12.0496 3.47519 11.2094 4.48584 11.2094C5.4965 11.2094 6.3172 12.0423 6.3172 13.0749C6.3172 14.1001 5.49893 14.9379 4.48584 14.9379ZM19.5556 14.9379C19.0654 14.9331 18.597 14.7344 18.2529 14.3853C17.9088 14.0362 17.717 13.565 17.7193 13.0749C17.7193 12.0496 18.5449 11.2094 19.5556 11.2094C20.5613 11.2094 21.3869 12.0423 21.3869 13.0749C21.3869 14.1001 20.5613 14.9379 19.5556 14.9379Z" fill="var(--fill-0, black)"/>
</g>
</svg>
