<svg preserveAspectRatio="none" width="100%" height="100%" overflow="visible" style="display: block;" viewBox="0 0 24 24" fill="none" xmlns="http://www.w3.org/2000/svg">
<g id="Frame">
<path id="Vector" d="M8.48123 6.21128C8.48123 6.2492 8.48031 6.28712 8.47847 6.32504C8.47655 6.36288 8.47375 6.40068 8.47007 6.43844C8.46639 6.4762 8.46175 6.51388 8.45615 6.55148C8.45055 6.589 8.44406 6.62636 8.4367 6.66356C8.42926 6.70076 8.42095 6.73776 8.41175 6.77456C8.40255 6.81136 8.39243 6.84792 8.38139 6.88424C8.37035 6.92056 8.35847 6.95656 8.34575 6.99224C8.33295 7.028 8.31927 7.0634 8.30471 7.09844C8.29023 7.13348 8.27486 7.16816 8.25862 7.20248C8.24238 7.2368 8.22535 7.27068 8.20751 7.30412C8.18959 7.33756 8.17086 7.37056 8.15134 7.40312C8.1319 7.43568 8.11163 7.46772 8.09051 7.49924C8.06947 7.53084 8.04762 7.56188 8.02498 7.59236C8.00234 7.62276 7.97903 7.65264 7.95503 7.682C7.93095 7.71136 7.90615 7.74008 7.88063 7.76816C7.85519 7.79632 7.82903 7.8238 7.80215 7.8506C7.77535 7.8774 7.7479 7.90356 7.71982 7.92908C7.69166 7.95452 7.66295 7.97932 7.63367 8.00348C7.60431 8.02748 7.57438 8.0508 7.5439 8.07344C7.51342 8.096 7.48243 8.11784 7.45091 8.13896C7.41931 8.16 7.38723 8.18028 7.35467 8.1998C7.32219 8.21932 7.28918 8.238 7.25566 8.25584C7.22222 8.27376 7.18834 8.29084 7.15402 8.30708C7.11978 8.32332 7.08511 8.33868 7.04999 8.35316C7.01495 8.36772 6.97958 8.38136 6.9439 8.39408C6.90814 8.40688 6.87214 8.4188 6.8359 8.42984C6.7995 8.44088 6.76291 8.451 6.72611 8.4602C6.68931 8.4694 6.65231 8.47772 6.61511 8.48516C6.57791 8.49252 6.54054 8.499 6.50302 8.5046C6.46542 8.5102 6.42779 8.51484 6.39011 8.51852C6.35235 8.5222 6.3145 8.525 6.27658 8.52692C6.23866 8.52876 6.20074 8.52968 6.16282 8.52968C6.1249 8.52968 6.08698 8.52872 6.04906 8.5268C6.01114 8.52496 5.97331 8.52216 5.93555 8.5184C5.89779 8.51472 5.86018 8.51012 5.82274 8.5046C5.78514 8.499 5.74774 8.49252 5.71054 8.48516C5.67334 8.47772 5.63635 8.4694 5.59955 8.4602C5.56275 8.451 5.52618 8.44088 5.48986 8.42984C5.45354 8.4188 5.41754 8.40688 5.38186 8.39408C5.3461 8.38128 5.31071 8.36768 5.27567 8.35328C5.24055 8.33872 5.20587 8.32332 5.17163 8.30708C5.13723 8.29084 5.10335 8.27376 5.06999 8.25584C5.03647 8.238 5.00347 8.21932 4.97099 8.1998C4.93843 8.18028 4.90635 8.16 4.87475 8.13896C4.84323 8.11784 4.81222 8.096 4.78174 8.07344C4.75134 8.0508 4.72147 8.02744 4.69211 8.00336C4.66275 7.97936 4.63403 7.9546 4.60595 7.92908C4.57779 7.90356 4.55031 7.8774 4.52351 7.8506C4.49663 7.8238 4.47047 7.79632 4.44503 7.76816C4.41951 7.74008 4.3947 7.71136 4.37062 7.682C4.34662 7.65272 4.32331 7.62284 4.30067 7.59236C4.27811 7.56188 4.25627 7.53084 4.23515 7.49924C4.21411 7.46772 4.19383 7.43572 4.17431 7.40324C4.15479 7.3706 4.13606 7.33756 4.11814 7.30412C4.1003 7.27068 4.08326 7.2368 4.06702 7.20248C4.05078 7.16816 4.03542 7.13348 4.02094 7.09844C4.00638 7.0634 3.99271 7.028 3.97991 6.99224C3.96711 6.95656 3.95522 6.92056 3.94426 6.88424C3.93322 6.84792 3.92311 6.81136 3.91391 6.77456C3.90471 6.73776 3.89639 6.70076 3.88895 6.66356C3.88159 6.62636 3.8751 6.589 3.8695 6.55148C3.8639 6.51388 3.85926 6.4762 3.85558 6.43844C3.8519 6.40068 3.84911 6.36288 3.84719 6.32504C3.84535 6.28712 3.84443 6.2492 3.84443 6.21128C3.84443 6.17328 3.84535 6.13536 3.84719 6.09752C3.84911 6.0596 3.8519 6.02176 3.85558 5.984C3.85934 5.94624 3.86398 5.9086 3.8695 5.87108C3.8751 5.83348 3.88159 5.79611 3.88895 5.75899C3.89639 5.72171 3.90471 5.68467 3.91391 5.64787C3.92311 5.61107 3.93322 5.57452 3.94426 5.5382C3.9553 5.50196 3.96719 5.46596 3.97991 5.4302C3.99271 5.39444 4.00638 5.35903 4.02094 5.32399C4.03542 5.28895 4.05078 5.25428 4.06702 5.21996C4.08326 5.18572 4.1003 5.15184 4.11814 5.11832C4.13606 5.08488 4.15479 5.05188 4.17431 5.01932C4.19383 4.98676 4.21411 4.95476 4.23515 4.92332C4.25627 4.89172 4.27811 4.86068 4.30067 4.8302C4.32331 4.79972 4.34662 4.76979 4.37062 4.74043C4.3947 4.71115 4.41951 4.68244 4.44503 4.65428C4.47047 4.6262 4.49663 4.59872 4.52351 4.57184C4.55031 4.54504 4.57779 4.51892 4.60595 4.49348C4.63395 4.46796 4.66267 4.44316 4.69211 4.41908C4.72139 4.39508 4.75126 4.37176 4.78174 4.34912C4.81222 4.32648 4.84323 4.30464 4.87475 4.2836C4.90635 4.26248 4.93843 4.24216 4.97099 4.22264C5.00347 4.2032 5.03647 4.18452 5.06999 4.1666C5.10343 4.14868 5.13731 4.13163 5.17163 4.11547C5.20587 4.09923 5.24055 4.08384 5.27567 4.06928C5.31071 4.0548 5.34607 4.0412 5.38175 4.02848C5.41751 4.01568 5.45351 4.00376 5.48975 3.99272C5.52615 3.98168 5.56275 3.97156 5.59955 3.96236C5.63635 3.95316 5.67334 3.94484 5.71054 3.9374C5.74774 3.92996 5.78511 3.92348 5.82263 3.91796C5.86023 3.91236 5.89787 3.90771 5.93555 3.90403C5.97331 3.90027 6.01114 3.89748 6.04906 3.89564C6.08698 3.8938 6.1249 3.89288 6.16282 3.89288C6.20074 3.89288 6.23866 3.8938 6.27658 3.89564C6.3145 3.89748 6.35235 3.90027 6.39011 3.90403C6.42787 3.90771 6.46547 3.91236 6.50291 3.91796C6.54051 3.92356 6.57791 3.93004 6.61511 3.9374C6.65231 3.94484 6.68931 3.95316 6.72611 3.96236C6.76291 3.97156 6.79947 3.98168 6.83579 3.99272C6.87211 4.00368 6.90811 4.01556 6.94379 4.02836C6.97955 4.04116 7.01495 4.0548 7.04999 4.06928C7.08511 4.08384 7.11978 4.09923 7.15402 4.11547C7.18842 4.13163 7.2223 4.14868 7.25566 4.1666C7.28918 4.18452 7.32219 4.2032 7.35467 4.22264C7.38723 4.24216 7.41931 4.26248 7.45091 4.2836C7.48243 4.30464 7.51342 4.32648 7.5439 4.34912C7.5743 4.37168 7.60423 4.395 7.63367 4.41908C7.66295 4.44316 7.69166 4.46796 7.71982 4.49348C7.74782 4.51892 7.77527 4.54504 7.80215 4.57184C7.82903 4.59872 7.85519 4.6262 7.88063 4.65428C7.90615 4.68244 7.93095 4.71115 7.95503 4.74043C7.97903 4.76979 8.00234 4.79972 8.02498 4.8302C8.04762 4.8606 8.06947 4.89159 8.09051 4.92319C8.11163 4.95471 8.1319 4.98676 8.15134 5.01932C8.17086 5.05188 8.18959 5.08488 8.20751 5.11832C8.22535 5.15184 8.24238 5.18572 8.25862 5.21996C8.27486 5.25436 8.29023 5.28903 8.30471 5.32399C8.31927 5.35903 8.33295 5.39444 8.34575 5.4302C8.35855 5.46596 8.37043 5.50196 8.38139 5.5382C8.39243 5.57452 8.40255 5.61107 8.41175 5.64787C8.42095 5.68467 8.42926 5.72171 8.4367 5.75899C8.44406 5.79619 8.45055 5.83356 8.45615 5.87108C8.46175 5.90868 8.46639 5.94632 8.47007 5.984C8.47375 6.02176 8.47655 6.0596 8.47847 6.09752C8.48031 6.13536 8.48123 6.17328 8.48123 6.21128ZM16.7444 5.11327C16.7444 5.17167 16.743 5.23 16.7401 5.28824C16.7372 5.34656 16.7329 5.40476 16.7273 5.46284C16.7215 5.52092 16.7143 5.57884 16.7058 5.6366C16.6972 5.69428 16.6873 5.75175 16.6759 5.80903C16.6645 5.86631 16.6517 5.92324 16.6375 5.9798C16.6233 6.03644 16.6078 6.09268 16.5908 6.14852C16.5739 6.20436 16.5557 6.25976 16.536 6.31472C16.5163 6.36968 16.4953 6.42412 16.473 6.47804C16.4507 6.53196 16.427 6.58532 16.4021 6.63812C16.3771 6.69092 16.3509 6.74304 16.3233 6.79448C16.2958 6.84592 16.2671 6.89672 16.2371 6.94688C16.2071 6.99688 16.1758 7.04612 16.1433 7.0946C16.1109 7.14316 16.0773 7.19088 16.0425 7.23776C16.0078 7.28464 15.9719 7.33064 15.9349 7.37576C15.8979 7.42088 15.8597 7.46508 15.8205 7.50836C15.7813 7.55156 15.7411 7.5938 15.6998 7.63508C15.6585 7.67636 15.6163 7.7166 15.5731 7.7558C15.5298 7.795 15.4856 7.83312 15.4405 7.87016C15.3954 7.9072 15.3494 7.94308 15.3025 7.9778C15.2556 8.0126 15.2079 8.0462 15.1595 8.0786C15.1109 8.11108 15.0616 8.14228 15.0115 8.1722C14.9614 8.20228 14.9107 8.23108 14.8592 8.2586C14.8078 8.28612 14.7557 8.31236 14.7029 8.33732C14.6501 8.3622 14.5967 8.3858 14.5428 8.40812C14.4889 8.43052 14.4344 8.45156 14.3795 8.47124C14.3245 8.49084 14.2691 8.50912 14.2133 8.52608C14.1574 8.54304 14.1012 8.55864 14.0445 8.57288C13.988 8.58704 13.9311 8.5998 13.8738 8.61116C13.8166 8.62252 13.7591 8.63252 13.7013 8.64116C13.6436 8.64964 13.5857 8.65676 13.5276 8.66252C13.4695 8.6682 13.4113 8.67248 13.353 8.67536C13.2947 8.67824 13.2364 8.67968 13.178 8.67968C13.1196 8.67968 13.0613 8.67824 13.0031 8.67536C12.9447 8.67248 12.8865 8.6682 12.8285 8.66252C12.7704 8.65676 12.7125 8.6496 12.6547 8.64104C12.597 8.63248 12.5395 8.62248 12.4823 8.61104C12.425 8.59976 12.3681 8.587 12.3115 8.57276C12.2549 8.5586 12.1986 8.54304 12.1428 8.52608C12.0869 8.50912 12.0315 8.49084 11.9766 8.47124C11.9216 8.45156 11.8672 8.43056 11.8133 8.40824C11.7593 8.38584 11.706 8.3622 11.6532 8.33732C11.6004 8.31236 11.5483 8.28612 11.4968 8.2586C11.4454 8.23108 11.3946 8.20228 11.3444 8.1722C11.2944 8.14228 11.2452 8.11108 11.1967 8.0786C11.1481 8.0462 11.1004 8.0126 11.0535 7.9778C11.0067 7.94308 10.9607 7.9072 10.9155 7.87016C10.8704 7.83312 10.8262 7.795 10.7829 7.7558C10.7397 7.7166 10.6975 7.67636 10.6562 7.63508C10.6149 7.5938 10.5747 7.55156 10.5355 7.50836C10.4963 7.46516 10.4582 7.42096 10.4211 7.37576C10.3841 7.33064 10.3482 7.28464 10.3135 7.23776C10.2787 7.19088 10.2451 7.14316 10.2127 7.0946C10.1802 7.04612 10.149 6.99684 10.1191 6.94676C10.089 6.89668 10.0602 6.84588 10.0327 6.79436C10.0052 6.74292 9.97899 6.69084 9.95411 6.63812C9.92915 6.58532 9.90546 6.53196 9.88306 6.47804C9.86074 6.42412 9.83975 6.36972 9.82007 6.31484C9.80047 6.2598 9.78218 6.20436 9.76522 6.14852C9.74826 6.09268 9.73267 6.03644 9.71843 5.9798C9.70427 5.92324 9.69151 5.86631 9.68015 5.80903C9.66879 5.75175 9.65878 5.69428 9.65014 5.6366C9.64166 5.57884 9.63455 5.52092 9.62879 5.46284C9.62311 5.40476 9.61883 5.34656 9.61595 5.28824C9.61307 5.23 9.61163 5.17167 9.61163 5.11327C9.61163 5.05487 9.61307 4.99656 9.61595 4.93832C9.61883 4.88 9.62311 4.8218 9.62879 4.76372C9.63455 4.70564 9.6417 4.64772 9.65026 4.58996C9.65882 4.5322 9.66883 4.47472 9.68027 4.41752C9.69155 4.36024 9.7043 4.30332 9.71854 4.24676C9.7327 4.19012 9.74826 4.13388 9.76522 4.07804C9.78218 4.0222 9.80047 3.9668 9.82007 3.91184C9.83975 3.85688 9.86074 3.80244 9.88306 3.74852C9.90546 3.6946 9.92915 3.64124 9.95411 3.58844C9.97899 3.53564 10.0052 3.48352 10.0327 3.43208C10.0602 3.38064 10.089 3.32983 10.1191 3.27967C10.149 3.22967 10.1802 3.1804 10.2127 3.13184C10.2451 3.08336 10.2787 3.03568 10.3135 2.9888C10.3482 2.94192 10.3841 2.89592 10.4211 2.8508C10.4582 2.80568 10.4963 2.76148 10.5355 2.7182C10.5747 2.675 10.6149 2.63275 10.6562 2.59147C10.6975 2.55019 10.7397 2.50995 10.7829 2.47075C10.8261 2.43155 10.8703 2.39344 10.9155 2.3564C10.9607 2.31936 11.0067 2.28347 11.0535 2.24875C11.1004 2.21395 11.1481 2.18036 11.1967 2.14796C11.2452 2.11548 11.2945 2.08427 11.3445 2.05435C11.3946 2.02427 11.4454 1.99548 11.4969 1.96796C11.5484 1.94044 11.6005 1.91419 11.6532 1.88923C11.706 1.86427 11.7593 1.84067 11.8133 1.81843C11.8672 1.79603 11.9216 1.775 11.9765 1.75532C12.0315 1.73572 12.0869 1.71743 12.1428 1.70047C12.1986 1.68351 12.2549 1.66791 12.3115 1.65367C12.3681 1.63951 12.425 1.62675 12.4823 1.61539C12.5395 1.60403 12.597 1.59403 12.6547 1.58539C12.7125 1.57691 12.7704 1.56979 12.8285 1.56403C12.8865 1.55835 12.9447 1.55407 13.0031 1.55119C13.0614 1.54831 13.1197 1.54688 13.178 1.54688C13.2364 1.54688 13.2947 1.54831 13.353 1.55119C13.4113 1.55407 13.4695 1.55835 13.5276 1.56403C13.5857 1.56979 13.6436 1.57695 13.7013 1.58551C13.7591 1.59407 13.8166 1.60407 13.8738 1.61551C13.9311 1.62679 13.988 1.63956 14.0445 1.6538C14.1012 1.66796 14.1574 1.68351 14.2133 1.70047C14.2691 1.71743 14.3245 1.73572 14.3795 1.75532C14.4344 1.775 14.4889 1.79599 14.5428 1.81831C14.5967 1.84071 14.6501 1.86435 14.7029 1.88923C14.7557 1.91419 14.8078 1.94044 14.8592 1.96796C14.9107 1.99548 14.9614 2.02427 15.0115 2.05435C15.0616 2.08427 15.1109 2.11548 15.1595 2.14796C15.2079 2.18036 15.2556 2.21395 15.3025 2.24875C15.3494 2.28347 15.3954 2.31936 15.4405 2.3564C15.4856 2.39344 15.5298 2.43155 15.5731 2.47075C15.6163 2.50995 15.6585 2.55019 15.6998 2.59147C15.7411 2.63275 15.7813 2.675 15.8205 2.7182C15.8597 2.7614 15.8979 2.8056 15.9349 2.8508C15.9719 2.89592 16.0078 2.94192 16.0425 2.9888C16.0773 3.03568 16.1109 3.08336 16.1433 3.13184C16.1758 3.1804 16.2071 3.22972 16.2371 3.2798C16.2671 3.32988 16.2958 3.38068 16.3233 3.4322C16.3509 3.48356 16.3771 3.53564 16.4021 3.58844C16.427 3.64124 16.4507 3.6946 16.473 3.74852C16.4953 3.80244 16.5163 3.85684 16.536 3.91172C16.5557 3.96676 16.5739 4.0222 16.5908 4.07804C16.6078 4.13388 16.6233 4.19012 16.6375 4.24676C16.6517 4.30332 16.6645 4.36024 16.6759 4.41752C16.6873 4.47472 16.6972 4.5322 16.7058 4.58996C16.7143 4.64772 16.7215 4.70564 16.7273 4.76372C16.7329 4.8218 16.7372 4.88 16.7401 4.93832C16.743 4.99656 16.7444 5.05487 16.7444 5.11327ZM20.486 11.4025L18.3332 12.8185V11.3377C18.3332 10.2541 17.4548 9.37568 16.3712 9.37568H3.97763C2.89403 9.37568 2.01562 10.2541 2.01562 11.3377V19.6297C2.01562 20.7133 2.89403 21.5917 3.97763 21.5917H16.37C17.4536 21.5917 18.332 20.7133 18.332 19.6297V18.9337L20.468 20.3965C21.2072 20.9029 22.2104 20.3737 22.2104 19.4785V12.3325C22.2104 11.4457 21.2264 10.9153 20.486 11.4025ZM8.48002 12.3781H5.01562C4.61842 12.3781 4.29562 12.0553 4.29562 11.6581C4.29562 11.2609 4.61842 10.9381 5.01562 10.9381H8.48002C8.87722 10.9381 9.20003 11.2609 9.20003 11.6581C9.20003 12.0553 8.87842 12.3781 8.48002 12.3781Z" fill="var(--fill-0, black)"/>
</g>
</svg>
