<svg preserveAspectRatio="none" width="100%" height="100%" overflow="visible" style="display: block;" viewBox="0 0 24 24" fill="none" xmlns="http://www.w3.org/2000/svg">
<g id="Frame">
<path id="Vector" d="M3.92031 11.5741C3.99331 11.5741 4.06431 11.5921 4.12731 11.6271L5.66031 12.4771V16.3591C5.6602 16.427 5.67636 16.494 5.70743 16.5543C5.73851 16.6147 5.7836 16.6668 5.83893 16.7061C5.89425 16.7455 5.95821 16.771 6.02543 16.7806C6.09266 16.7902 6.1612 16.7835 6.22531 16.7611L6.85531 16.5431C6.94231 16.5131 7.03931 16.5431 7.09531 16.6161L8.06231 17.9101C8.11571 17.9819 8.19039 18.035 8.27572 18.0619C8.36105 18.0887 8.45268 18.088 8.53756 18.0597C8.62243 18.0314 8.69623 17.9771 8.74844 17.9045C8.80064 17.8318 8.8286 17.7446 8.82831 17.6551V14.2341L10.9683 15.4211C11.6103 15.7771 12.3903 15.7771 13.0313 15.4211L19.8733 11.6271C19.9381 11.591 20.0111 11.5725 20.0853 11.5733C20.1594 11.5742 20.232 11.5944 20.2959 11.632C20.3598 11.6696 20.4127 11.7233 20.4495 11.7877C20.4862 11.8521 20.5055 11.925 20.5053 11.9991V16.3971C20.5053 17.1751 20.0803 17.8911 19.3963 18.2631L13.0183 21.7411C12.3833 22.0861 11.6173 22.0861 10.9823 21.7411L4.60431 18.2631C4.26888 18.0804 3.98887 17.8107 3.79372 17.4823C3.59857 17.154 3.49549 16.7791 3.49531 16.3971V11.9991C3.49531 11.7641 3.68531 11.5741 3.92031 11.5741ZM13.0203 2.26012L22.6703 7.52612C22.7709 7.58102 22.8548 7.66199 22.9133 7.76053C22.9718 7.85907 23.0026 7.97154 23.0026 8.08612C23.0026 8.2007 22.9718 8.31317 22.9133 8.41171C22.8548 8.51025 22.7709 8.59122 22.6703 8.64612L13.0203 13.9121C12.7078 14.0828 12.3574 14.1722 12.0013 14.1722C11.6452 14.1722 11.2948 14.0828 10.9823 13.9121L1.33231 8.64612C1.23174 8.59122 1.14781 8.51025 1.08933 8.41171C1.03086 8.31317 1 8.2007 1 8.08612C1 7.97154 1.03086 7.85907 1.08933 7.76053C1.14781 7.66199 1.23174 7.58102 1.33231 7.52612L10.9823 2.26012C11.2948 2.08944 11.6452 2 12.0013 2C12.3574 2 12.7078 2.08944 13.0203 2.26012Z" fill="var(--fill-0, black)"/>
</g>
</svg>
