<svg preserveAspectRatio="none" width="100%" height="100%" overflow="visible" style="display: block;" viewBox="0 0 24 24" fill="none" xmlns="http://www.w3.org/2000/svg">
<g id="Frame">
<path id="Vector" d="M12.0001 2.39844C10.0383 2.39686 8.12016 2.97746 6.48858 4.0667C4.85699 5.15595 3.58531 6.70486 2.83458 8.5173C2.08385 10.3297 1.88782 12.3242 2.27132 14.2481C2.65483 16.172 3.60061 17.9389 4.98891 19.3249C6.37721 20.711 8.14559 21.6539 10.0701 22.0343C11.9947 22.4147 13.9888 22.2155 15.8 21.4618C17.6112 20.7081 19.1581 19.434 20.2447 17.8006C21.3313 16.1673 21.9088 14.2482 21.9041 12.2864C21.8998 9.66251 20.8545 7.1475 18.9976 5.2936C17.1407 3.43969 14.624 2.39844 12.0001 2.39844ZM10.8721 15.2864L9.00005 13.4224C8.85129 13.2738 8.73328 13.0974 8.65276 12.9031C8.57224 12.7089 8.5308 12.5007 8.5308 12.2904C8.5308 12.0802 8.57224 11.872 8.65276 11.6777C8.73328 11.4835 8.85129 11.307 9.00005 11.1584L10.8721 9.28644C11.1718 8.98844 11.5774 8.82117 12.0001 8.82117C12.4228 8.82117 12.8283 8.98844 13.1281 9.28644L15.0001 11.1984C15.1488 11.347 15.2668 11.5235 15.3473 11.7177C15.4279 11.912 15.4693 12.1202 15.4693 12.3304C15.4693 12.5407 15.4279 12.7489 15.3473 12.9431C15.2668 13.1374 15.1488 13.3138 15.0001 13.4624L13.1281 15.3264C12.823 15.6192 12.4145 15.7793 11.9918 15.7718C11.5691 15.7643 11.1665 15.5898 10.8721 15.2864Z" fill="var(--fill-0, black)"/>
</g>
</svg>
