<svg preserveAspectRatio="none" width="100%" height="100%" overflow="visible" style="display: block;" viewBox="0 0 24 24" fill="none" xmlns="http://www.w3.org/2000/svg">
<g id="Frame" clip-path="url(#clip0_0_76)">
<path id="Vector" d="M12.1249 21.9207C13.3366 23.1284 14.9506 23.8475 16.6588 23.9407C18.367 24.0339 20.0497 23.4946 21.3855 22.4259L16.5055 17.5401L12.1249 21.9207ZM15.9477 15.9047L16.4909 15.3615L20.7489 11.0977L22.3697 9.47686C23.4107 8.43549 23.9953 7.02325 23.9951 5.55081C23.9948 4.07837 23.4096 2.66635 22.3682 1.62537C21.3269 0.584388 19.9146 -0.000273743 18.4422 9.61504e-08C16.9697 0.000273935 15.5577 0.585461 14.5167 1.62683L1.66699 14.4766C1.15136 14.9924 0.742371 15.6047 0.463387 16.2786C0.184402 16.9525 0.0408801 17.6747 0.0410157 18.4041C0.0411513 19.1334 0.184942 19.8556 0.464177 20.5294C0.743412 21.2032 1.15262 21.8154 1.66845 22.331C2.18427 22.8466 2.79661 23.2556 3.47049 23.5346C4.14437 23.8136 4.86661 23.9571 5.59596 23.957C6.32531 23.9568 7.04749 23.813 7.72127 23.5338C8.39505 23.2546 9.00723 22.8454 9.52286 22.3295L9.92879 21.9178L15.9477 15.9047ZM9.24834 9.20234L15.6732 2.77746C16.0338 2.39669 16.4671 2.09204 16.9474 1.88151C17.4277 1.67099 17.9453 1.55884 18.4697 1.55171C18.9941 1.54458 19.5146 1.6426 20.0004 1.83999C20.4863 2.03738 20.9277 2.33013 21.2985 2.70096C21.6693 3.07178 21.9621 3.51316 22.1594 3.99902C22.3568 4.48488 22.4549 5.00536 22.4477 5.52974C22.4406 6.05412 22.3285 6.57175 22.1179 7.05206C21.9074 7.53237 21.6027 7.96562 21.222 8.32622L14.7971 14.7511L9.24834 9.20234ZM21.9696 12.0731L17.589 16.4537L22.4865 21.3424C23.5537 20.0036 24.0909 18.3187 23.9956 16.6092C23.9002 14.8997 23.1791 13.285 21.9696 12.0731Z" fill="var(--fill-0, #277FFF)"/>
</g>
<defs>
<clipPath id="clip0_0_76">
<rect width="24" height="24" fill="white"/>
</clipPath>
</defs>
</svg>
