<svg preserveAspectRatio="none" width="100%" height="100%" overflow="visible" style="display: block;" viewBox="0 0 24 24" fill="none" xmlns="http://www.w3.org/2000/svg">
<g id="Frame">
<path id="Vector" d="M12.0024 1.45313C10.262 1.45273 8.54858 1.88302 7.01487 2.70565C5.48116 3.52827 4.17486 4.71765 3.21244 6.16773C2.25003 7.61781 1.66142 9.28352 1.4991 11.0163C1.33678 12.7491 1.60579 14.4952 2.28215 16.0988L7.73357 9.10225L11.5608 13.0283L14.2476 9.63618L12.6062 7.99614L19.1611 6.23877L17.4051 12.7963L15.7479 11.1378L11.6333 16.1265L7.91287 12.3111L3.40276 18.0908C4.37477 19.4678 5.66319 20.5912 7.15968 21.3666C8.65616 22.142 10.317 22.5468 12.0024 22.5469C14.7996 22.5469 17.4823 21.4357 19.4602 19.4578C21.4381 17.4798 22.5493 14.7972 22.5493 12C22.5493 9.20279 21.4381 6.52016 19.4602 4.54223C17.4823 2.56431 14.7996 1.45313 12.0024 1.45313Z" fill="var(--fill-0, black)"/>
</g>
</svg>
